# xmcd
#
# Track frame offsets: 
#        150
#        20272
#        41612
#        61225
#        85101
#        105280
#        123405
#        141478
#        163651
#        184370
#        204531
#        239020
#
# Disc length: 3514 seconds
#
# Revision: 0
# Processed by: cddbd v1.5.2PL0 Copyright (c) Steve Scherf et al.
# Submitted via: ExactAudioCopy v1.0b6
#
DISCID=a40db80c
DTITLE=UMBERTO TOZZI - Umberto Tozzi CD3
DYEAR=2013
DGENRE=Blues
TTITLE0=01 Si Può Dare Di Più
TTITLE1=02 Tu Piccolo
TTITLE2=03 Stella Stai
TTITLE3=04 Dimmi Di No 
TTITLE4=05 Amico Pianoforte
TTITLE5=06 Invisibile
TTITLE6=07 Immensamente
TTITLE7=08 Gli Innamorati
TTITLE8=09 Lei
TTITLE9=10 Un'Altra Vita
TTITLE10=11 Notte Rosa
TTITLE11=12 Gli Altri Siamo Noi
EXTD=
EXTT0=
EXTT1=
EXTT2=
EXTT3=
EXTT4=
EXTT5=
EXTT6=
EXTT7=
EXTT8=
EXTT9=
EXTT10=
EXTT11=
PLAYORDER=
